<?xml version="1.0" ?><svg data-name="024_HOLIDAYS" id="_024_HOLIDAYS" viewBox="0 0 24 24" xmlns="http://www.w3.org/2000/svg"><defs><style>.cls-1{fill:#333;}</style></defs><path class="cls-1" d="M10,9A1,1,0,0,1,9,8a3,3,0,0,1,3-3,1,1,0,0,1,0,2,1,1,0,0,0-1,1A1,1,0,0,1,10,9Z"/><path class="cls-1" d="M18,22H6a1,1,0,0,1-1-.9l-1-10a1,1,0,0,1,.26-.77A1,1,0,0,1,5,10H19a1,1,0,0,1,0,2H6.1l.8,8H17.1l.61-6.1A1,1,0,0,1,18.8,13a1,1,0,0,1,.9,1.1l-.7,7A1,1,0,0,1,18,22Z"/><path class="cls-1" d="M13.9,22h0a1,1,0,0,1-1-1l.4-10a1,1,0,0,1,2,.08l-.4,10A1,1,0,0,1,13.9,22Z"/><path class="cls-1" d="M10,22a1,1,0,0,1-1-.95l-.5-10a1,1,0,1,1,2-.1L11,21A1,1,0,0,1,10.05,22Z"/><path class="cls-1" d="M5,12H4a1,1,0,0,1,0-2H5a1,1,0,0,1,0,2Z"/><path class="cls-1" d="M20,12H19a1,1,0,0,1,0-2h1a1,1,0,0,1,0,2Z"/><path class="cls-1" d="M5.17,11a1,1,0,0,1-.91-.58A3.27,3.27,0,0,1,5.37,6.35a3.15,3.15,0,0,1,0-1.64A3.26,3.26,0,0,1,9.31,2.43a3.26,3.26,0,0,1,5.39,0,3.26,3.26,0,0,1,3.77,2,3.26,3.26,0,0,1,.16,2A3.24,3.24,0,0,1,19.9,8.07a1,1,0,1,1-1.91.6,1.3,1.3,0,0,0-.9-.86,1,1,0,0,1-.67-.6,1,1,0,0,1,.09-.9c0-.06.07-.12.1-.19a1.24,1.24,0,0,0,0-1,1.28,1.28,0,0,0-.69-.7,1.26,1.26,0,0,0-1.19.1A1,1,0,0,1,13.23,4c0-.1,0-.13,0-.17a1.29,1.29,0,0,0-2.38,0L10.75,4a1,1,0,0,1-.61.64,1,1,0,0,1-.88-.09A1.28,1.28,0,0,0,8,4.49a1.27,1.27,0,0,0-.61.77,1.24,1.24,0,0,0,.11,1l0,.06a1,1,0,0,1,.1.9,1,1,0,0,1-.68.61A1.26,1.26,0,0,0,6,8.64a1.28,1.28,0,0,0,.06.94,1,1,0,0,1-.5,1.33A1,1,0,0,1,5.17,11Z"/></svg>