<?xml version="1.0" encoding="UTF-8"?>
<svg width="24" height="24" viewBox="0 0 24 24" fill="none" xmlns="http://www.w3.org/2000/svg">
    <!-- Piano body -->
    <rect x="2" y="4" width="20" height="16" rx="2" fill="black"/>
    <!-- Piano keys -->
    <rect x="3" y="6" width="2" height="12" fill="white"/>
    <rect x="5" y="6" width="2" height="12" fill="white"/>
    <rect x="7" y="6" width="2" height="12" fill="white"/>
    <rect x="9" y="6" width="2" height="12" fill="white"/>
    <rect x="11" y="6" width="2" height="12" fill="white"/>
    <rect x="13" y="6" width="2" height="12" fill="white"/>
    <rect x="15" y="6" width="2" height="12" fill="white"/>
    <rect x="17" y="6" width="2" height="12" fill="white"/>
    <rect x="19" y="6" width="2" height="12" fill="white"/>
    <!-- Black keys -->
    <rect x="4" y="6" width="1" height="8" fill="black"/>
    <rect x="6" y="6" width="1" height="8" fill="black"/>
    <rect x="10" y="6" width="1" height="8" fill="black"/>
    <rect x="12" y="6" width="1" height="8" fill="black"/>
    <rect x="16" y="6" width="1" height="8" fill="black"/>
    <rect x="18" y="6" width="1" height="8" fill="black"/>
</svg> 