<?xml version="1.0" ?><svg viewBox="0 0 64 64" xmlns="http://www.w3.org/2000/svg"><title/><g id="Rocket"><path d="M17.4946,40.3253a1,1,0,0,0-1.6558.3906L12.2734,51.4127a1,1,0,0,0,.2417,1.0234l9.27,9.27a1,1,0,0,0,1.4141,0l7.1308-7.1308a1,1,0,0,0,0-1.4141Z" style="fill:#e84a5f"/><path d="M61.7065,21.7852l-9.27-9.27a.9991.9991,0,0,0-1.0235-.2417L40.7163,15.8384a1,1,0,0,0-.3907,1.6558L53.1616,30.33a.9995.9995,0,0,0,1.414,0l7.1309-7.1308A1,1,0,0,0,61.7065,21.7852Z" style="fill:#e84a5f"/><path d="M54.5766,28.9122,32.6753,7.0108A17.2245,17.2245,0,0,0,17.6489,2.2437l-12.44,2.15a1,1,0,0,0-.8149.815l-2.15,12.4423a17.2209,17.2209,0,0,0,4.7686,15.025l21.9,21.9a.9995.9995,0,0,0,1.414,0l8.05-8.05a1,1,0,0,0-.7759-1.7045l-2.0932.144-1.1856-10.644,10.6446,1.1855L44.8217,37.6a1,1,0,0,0,1.7046.7758l8.05-8.05a.9995.9995,0,0,0,0-1.414Z" style="fill:#d6daf2"/><path d="M40.3139,33.1944,25.8667,18.7471a1,1,0,0,0-1.6929.5386,6.0384,6.0384,0,0,1-4.8877,4.8877,1,1,0,0,0-.5386,1.6929L33.1948,40.3135a1,1,0,0,0,1.7007-.8173L34.3208,34.32l5.1757.5747a1,1,0,0,0,.8174-1.7007Z" style="fill:#ff847c"/><path d="M23.9126,12.5147a8.0592,8.0592,0,1,0-5.712,13.7583,8.0618,8.0618,0,0,0,5.712-13.7583Z" style="fill:#e84a5f"/><path d="M46.1347,33.6212,33.2993,32.1949a.9995.9995,0,0,0-1.104,1.104l1.4262,12.8354a1,1,0,0,0,.9927.89c.0225,0,.0454-.0005.0684-.0024l10.6948-.7124a1.0005,1.0005,0,0,0,.9321-.9322l.7124-10.6948A1,1,0,0,0,46.1347,33.6212Z" style="fill:#e84a5f"/><g style="opacity:0.15"><path d="M61.7065,21.7852l-9.27-9.27a.9991.9991,0,0,0-1.0235-.2417L41.3107,15.64l-.0012-.0012-8.63-8.63a17.2651,17.2651,0,0,0-4.83-3.38,30.8819,30.8819,0,0,1,6.79,19.37,31.2184,31.2184,0,0,1-.29,4.24,31.2536,31.2536,0,0,1-1.09,4.96c-.27.85-.57,1.66-.91,2.48v.02a30.7672,30.7672,0,0,1-1.53,3.23,31.3,31.3,0,0,1-7.06,8.66c-.51.43-1.04.85-1.58,1.26a31.2246,31.2246,0,0,1-9.45,4.8l9.06,9.06a1.001,1.001,0,0,0,.7.29,1.0243,1.0243,0,0,0,.71-.29l7.13-7.13,7.79-7.79,7.26-.48a.9921.9921,0,0,0,.93-.93l.48-7.26,7.79-7.79.0052-.008,7.1218-7.1218A1,1,0,0,0,61.7065,21.7852Z" style="fill:#0f3460"/></g><path d="M61.7065,21.7852l-9.27-9.27a.9991.9991,0,0,0-1.0235-.2417L41.3062,15.6418l-8.6309-8.631A17.2245,17.2245,0,0,0,17.6489,2.2437l-12.44,2.15a1,1,0,0,0-.8149.815l-2.15,12.4423a17.2209,17.2209,0,0,0,4.7686,15.025l8.63,8.63L12.2734,51.4127a1,1,0,0,0,.2417,1.0234l9.27,9.27a1,1,0,0,0,1.4141,0l7.1308-7.1308.0058-.0088,7.7728-7.7732,7.2683-.4841a1.0005,1.0005,0,0,0,.9321-.9322l.4842-7.2683,7.7732-7.7728.0087-.0058,7.1309-7.1308A1,1,0,0,0,61.7065,21.7852Zm-39.2139,37.8-8.1264-8.1259,2.8571-8.5721L28.207,53.8707Zm22.355-22.3588-.0259.374.0005.006-.4507,6.765-6.765.4506-.006,0-.4137.0284-1.68.1119-1.1852-10.64,10.64,1.185Zm-12.2544-.3423L21.351,25.6417c.1635-.0688.3212-.15.48-.23.0466-.0234.0945-.0432.1406-.0675a7.9539,7.9539,0,0,0,.9093-.5664c.0649-.0464.128-.0948.1917-.1432a7.3574,7.3574,0,0,0,1.5623-1.5622c.0487-.0641.0974-.1274.1439-.1926a7.9563,7.9563,0,0,0,.5642-.905c.0262-.05.0474-.1012.0725-.1513.0785-.1563.159-.3116.2269-.4727L36.8842,32.5928l-3.5849-.3979a.9995.9995,0,0,0-1.104,1.104ZM19.2758,24.1754a6.06,6.06,0,1,1,4.898-4.89,6.0389,6.0389,0,0,1-4.898,4.89ZM47.0009,35.0733l.0264-.3852a1.0106,1.0106,0,0,0-.8926-1.0669l-6.0683-.6744L26.2083,19.0888a8.1271,8.1271,0,1,0-7.1109,7.1274l13.85,13.85.6743,6.0683a.9909.9909,0,0,0,.1183.3674c.0127.0236.0341.04.0487.0623a.9927.9927,0,0,0,.18.2177,4.2843,4.2843,0,0,0,.3116.18,1.0332,1.0332,0,0,0,.1945.0364.9516.9516,0,0,0,.14.0261c.0145,0,.0294-.0009.0441-.0016.0105,0,.02.0046.03.004L35.0742,47,29.622,52.4527,17.4946,40.3253c-.0065-.0065-.0148-.01-.0214-.0165l-9.046-9.046A15.2143,15.2143,0,0,1,4.2148,17.9893l2.03-11.7451L17.9873,4.2149a15.2268,15.2268,0,0,1,13.2749,4.211l9.047,9.0469c.0063.0067.01.0149.0164.0214L52.4531,29.6217Zm6.87-6.8667L42.8874,17.223l8.572-2.8572,8.126,8.1265Z" style="fill:#0f3460"/><path d="M50.2968,48.8824a1,1,0,1,0-1.414,1.4141l4.2788,4.2788a1,1,0,1,0,1.414-1.4141Z" style="fill:#0f3460"/><path d="M37.4614,50.3087a1,1,0,0,0-1.4141,1.414L44.6045,60.28a1,1,0,1,0,1.414-1.4141Z" style="fill:#0f3460"/><path d="M43.8794,49.5958a1,1,0,1,0-1.4141,1.414l3.5654,3.5655a1,1,0,1,0,1.4141-1.4141Z" style="fill:#0f3460"/><path d="M51.7231,36.0469A1,1,0,0,0,50.309,37.461l8.5572,8.5571a1,1,0,0,0,1.414-1.414Z" style="fill:#0f3460"/><path d="M51.01,42.4649a1,1,0,0,0-1.414,1.4141l3.5654,3.5654a1,1,0,1,0,1.414-1.4141Z" style="fill:#0f3460"/></g></svg>