<?xml version="1.0" ?><svg style="enable-background:new 0 0 24 24;" version="1.1" viewBox="0 0 24 24" xml:space="preserve" xmlns="http://www.w3.org/2000/svg" xmlns:xlink="http://www.w3.org/1999/xlink"><style type="text/css">
	.st0{display:none;}
	.st1{display:inline;}
	.st2{opacity:0.2;fill:none;stroke:#000000;stroke-width:5.000000e-02;stroke-miterlimit:10;}
</style><g class="st0" id="grid_system"/><g id="_icons"><path d="M3.3,19.7c0.4,0.4,1,0.7,1.9,0.7c0.9,0,2-0.3,3.6-1.1c1,0.5,2.2,0.7,3.3,0.7c4.4,0,8-3.6,8-8c0-1.1-0.3-2.3-0.7-3.3   C21,5.6,20.5,4,19.7,3.3c-1.2-1.2-3.3-0.8-6.2,0.9C13,4.1,12.5,4,12,4c-4.4,0-8,3.6-8,8c0,0.5,0.1,1,0.2,1.5   C2.5,16.4,2.1,18.6,3.3,19.7z M12,18c-0.4,0-0.7,0-1.1-0.1c1.3-0.9,2.5-2,3.8-3.2c1.2-1.2,2.3-2.5,3.2-3.8C18,11.3,18,11.6,18,12   C18,15.3,15.3,18,12,18z M5.8,17c0.2,0.2,0.5,0.4,0.8,0.4c0.2,0,0.4-0.1,0.6-0.2c0.4-0.3,0.5-1,0.1-1.4C6.5,14.7,6,13.4,6,12   c0-3.3,2.7-6,6-6c1.4,0,2.8,0.5,3.9,1.4c0.4,0.4,1.1,0.3,1.4-0.1s0.3-1.1-0.1-1.4c-0.3-0.3-0.7-0.6-1.1-0.8   c1.3-0.6,2.1-0.6,2.3-0.4c0.2,0.2,0.2,1.3-1,3.5c-0.9,1.6-2.4,3.4-4,5.1c-1.7,1.7-3.5,3.1-5.1,4c-2.1,1.2-3.3,1.2-3.5,1   c-0.2-0.2-0.2-0.9,0.4-2.3C5.3,16.4,5.5,16.7,5.8,17z"/></g></svg>